Run_50002
nRows=4
nColumns=164

# SIMM Motion File Header:
name Run_50002
datacolumns 164
datarows 4
otherdata 1
range 0.00833300 0.03333300
endheader
time	pelvis_tilt	pelvis_list	pelvis_rotation	pelvis_tx	pelvis_ty	pelvis_tz	hip_flexion_r	hip_adduction_r	hip_rotation_r	knee_angle_r	ankle_angle_r	hip_flexion_l	hip_adduction_l	hip_rotation_l	knee_angle_l	ankle_angle_l	lumbar_extension	lumbar_bending	lumbar_rotation	arm_flex_r	arm_add_r	arm_rot_r	elbow_flex_r	pro_sup_r	arm_flex_l	arm_add_l	arm_rot_l	elbow_flex_l	pro_sup_l	subtalar_angle_r	mtp_angle_r	subtalar_angle_l	mtp_angle_l	wrist_flex_r	wrist_dev_r	wrist_flex_l	wrist_dev_l	LASI_tx	LASI_ty	LASI_tz	RASI_tx	RASI_ty	RASI_tz	LPSI_tx	LPSI_ty	LPSI_tz	RPSI_tx	RPSI_ty	RPSI_tz	RTH1_tx	RTH1_ty	RTH1_tz	RTH2_tx	RTH2_ty	RTH2_tz	RTH3_tx	RTH3_ty	RTH3_tz	LTH1_tx	LTH1_ty	LTH1_tz	LTH2_tx	LTH2_ty	LTH2_tz	LTH3_tx	LTH3_ty	LTH3_tz	RTB1_tx	RTB1_ty	RTB1_tz	RTB2_tx	RTB2_ty	RTB2_tz	RTB3_tx	RTB3_ty	RTB3_tz	LTB1_tx	LTB1_ty	LTB1_tz	LTB2_tx	LTB2_ty	LTB2_tz	LTB3_tx	LTB3_ty	LTB3_tz	RCAL_tx	RCAL_ty	RCAL_tz	RTOE_tx	RTOE_ty	RTOE_tz	RMT5_tx	RMT5_ty	RMT5_tz	LCAL_tx	LCAL_ty	LCAL_tz	LTOE_tx	LTOE_ty	LTOE_tz	LMT5_tx	LMT5_ty	LMT5_tz	LACR_tx	LACR_ty	LACR_tz	RACR_tx	RACR_ty	RACR_tz	CLAV_tx	CLAV_ty	CLAV_tz	C7_tx	C7_ty	C7_tz	RUA1_tx	RUA1_ty	RUA1_tz	RUA2_tx	RUA2_ty	RUA2_tz	RUA3_tx	RUA3_ty	RUA3_tz	RLEL_tx	RLEL_ty	RLEL_tz	RMEL_tx	RMEL_ty	RMEL_tz	LUA1_tx	LUA1_ty	LUA1_tz	LUA2_tx	LUA2_ty	LUA2_tz	LUA3_tx	LUA3_ty	LUA3_tz	LLEL_tx	LLEL_ty	LLEL_tz	LMEL_tx	LMEL_ty	LMEL_tz	RFAsuperior_tx	RFAsuperior_ty	RFAsuperior_tz	RFAradius_tx	RFAradius_ty	RFAradius_tz	RFAulna_tx	RFAulna_ty	RFAulna_tz	LFAsuperior_tx	LFAsuperior_ty	LFAsuperior_tz	LFAradius_tx	LFAradius_ty	LFAradius_tz	LFAulna_tx	LFAulna_ty	LFAulna_tz
      0.00833300	     -5.06601153	     -3.97747958	      9.42223204	      0.76029619	      0.98042763	     -0.40854370	     53.04694576	     -3.62330297	     -9.36046713	    -99.60251906	      5.92523192	    -20.95946861	     -6.36431827	      2.05400530	    -11.31331646	    -18.49930519	     -8.74337191	      5.44694521	    -16.34792122	    -51.56527350	    -28.88821042	    -18.54552956	    100.41258094	     74.61517114	     16.32614765	    -32.47189236	      7.99459199	    131.30762636	     86.98971076	      0.00000000	      0.00000000	      0.00000000	      0.00000000	      0.00000000	      0.00000000	      0.00000000	      0.00000000	      0.76200233	      0.98195401	     -0.53109482	      0.77143047	      1.01378748	     -0.28747269	      0.60589475	      1.03641462	     -0.43286521	      0.60906636	      1.04081534	     -0.34450492	      0.81011437	      0.86835547	     -0.23179739	      0.93092818	      0.82055408	     -0.25400942	      0.94709191	      0.68681450	     -0.24723729	      0.66085184	      0.85486434	     -0.56568193	      0.65827903	      0.73456006	     -0.55808274	      0.52826749	      0.64543075	     -0.53942525	      0.95412981	      0.52013139	     -0.31492804	      0.87509313	      0.50807107	     -0.26385608	      0.79868718	      0.42308019	     -0.33010386	      0.45160030	      0.40835521	     -0.48479198	      0.34694426	      0.35754816	     -0.53374422	      0.31778435	      0.27064243	     -0.46677081	      0.61982581	      0.41809769	     -0.34453869	      0.76168876	      0.25007761	     -0.32856933	      0.72238729	      0.26952107	     -0.24107030	      0.15828655	      0.25617276	     -0.46256703	      0.29367399	      0.08818591	     -0.44334934	      0.23850240	      0.07794538	     -0.51815384	      0.81065782	      1.45265371	     -0.57833132	      0.72992150	      1.48144237	     -0.22916470	      0.85365230	      1.41956580	     -0.35046107	      0.73737471	      1.50370504	     -0.41596239	      0.65960214	      1.42435757	     -0.15609115	      0.64515394	      1.35697112	     -0.13750111	      0.54511493	      1.38964581	     -0.13878325	      0.51973286	      1.31833687	     -0.07506416	      0.48665460	      1.29776286	     -0.15338971	      0.80453992	      1.37727317	     -0.63767396	      0.75139951	      1.30008899	     -0.64469024	      0.81700265	      1.29164041	     -0.68215723	      0.83024315	      1.19174973	     -0.73136646	      0.79247563	      1.12967881	     -0.67552092	      0.56993014	      1.25188205	     -0.05647095	      0.66778524	      1.11136206	     -0.07379981	      0.60416691	      1.08988745	     -0.06047731	      0.88711601	      1.22548397	     -0.69717010	      0.96499746	      1.28751772	     -0.55239234	      1.00206763	      1.23458554	     -0.56965661
      0.01666700	     -5.35440570	     -4.13646495	      8.84198706	      0.76190200	      0.98450146	     -0.40830897	     53.60543839	     -3.29649003	     -9.59401088	    -92.49553829	      6.77641626	    -21.67290104	     -6.57865103	     -0.12942915	    -13.12546906	    -23.76101489	     -8.43956472	      5.89349894	    -16.68478830	    -52.97737355	    -29.35200355	    -19.64206725	    100.99040673	     74.74414009	     15.26923104	    -32.84908802	      9.45156719	    132.10163597	     86.55016927	      0.00000000	      0.00000000	      0.00000000	      0.00000000	      0.00000000	      0.00000000	      0.00000000	      0.00000000	      0.76526965	      0.98455692	     -0.52980448	      0.77181087	      1.01814837	     -0.28848180	      0.60814622	      1.04121311	     -0.43371060	      0.61024314	      1.04524223	     -0.34561229	      0.81127866	      0.87499497	     -0.23217310	      0.93001543	      0.82594407	     -0.25203635	      0.94718483	      0.69192239	     -0.24989644	      0.66052753	      0.86117298	     -0.56629757	      0.65478385	      0.74010452	     -0.55984600	      0.52428565	      0.65379121	     -0.54118217	      0.97086487	      0.52109014	     -0.31572332	      0.89397692	      0.49949905	     -0.26525085	      0.82993376	      0.40567367	     -0.33294790	      0.43922485	      0.41763192	     -0.48677808	      0.33270723	      0.37069390	     -0.53533914	      0.29955051	      0.28537751	     -0.46818459	      0.65323689	      0.37614176	     -0.35057762	      0.81633474	      0.23074859	     -0.33022749	      0.77258019	      0.24427460	     -0.24380045	      0.14700407	      0.28480113	     -0.46316668	      0.25811316	      0.10127150	     -0.44279045	      0.19911621	      0.09349391	     -0.51482289	      0.81495261	      1.45712130	     -0.57515782	      0.72852654	      1.48501696	     -0.22881891	      0.85403961	      1.42271190	     -0.34705465	      0.73864648	      1.50653358	     -0.41460594	      0.65726051	      1.43042798	     -0.15609489	      0.64163803	      1.36297862	     -0.13750766	      0.54253715	      1.39825239	     -0.13968002	      0.51464160	      1.32787406	     -0.07652814	      0.48197154	      1.30776070	     -0.15533928	      0.80976224	      1.38309226	     -0.63567503	      0.75541784	      1.30746765	     -0.64634300	      0.82274241	      1.29745899	     -0.68023388	      0.83514589	      1.19745511	     -0.73034117	      0.79278832	      1.13576041	     -0.67693940	      0.56381232	      1.26142661	     -0.05671392	      0.66078706	      1.11987479	     -0.07088232	      0.59688518	      1.09911768	     -0.05780540	      0.89106356	      1.23005801	     -0.69375891	      0.96350994	      1.28933582	     -0.54511338	      0.99952610	      1.23599464	     -0.56089827
      0.02500000	     -5.64387827	     -4.19097286	      8.19994967	      0.76332846	      0.98815900	     -0.40790372	     53.61217327	     -2.86787596	     -9.75741721	    -84.88954811	      7.28161894	    -22.20647175	     -6.58310239	     -1.51482725	    -15.45797082	    -27.98177619	     -8.20554511	      6.21813615	    -16.96477398	    -54.23433472	    -29.81939713	    -20.69960990	    101.53882552	     74.89181249	     14.05704671	    -33.28737474	     10.74885576	    132.84835024	     86.47110365	      0.00000000	      0.00000000	      0.00000000	      0.00000000	      0.00000000	      0.00000000	      0.00000000	      0.00000000	      0.76823480	      0.98751796	     -0.52773036	      0.77204914	      1.02185953	     -0.28906541	      0.61009849	      1.04568511	     -0.43480620	      0.61128942	      1.04953824	     -0.34667401	      0.81109950	      0.87979794	     -0.23227338	      0.92867201	      0.83010545	     -0.25061369	      0.94670828	      0.69519442	     -0.25213700	      0.66129198	      0.86649429	     -0.56677160	      0.65334956	      0.74458715	     -0.56100319	      0.52218630	      0.66024401	     -0.54309711	      0.98591283	      0.52058839	     -0.31625823	      0.91175201	      0.48978932	     -0.26629620	      0.86020644	      0.38828602	     -0.33567082	      0.42789656	      0.42616085	     -0.48793405	      0.31955457	      0.38375039	     -0.53642483	      0.28146363	      0.30119803	     -0.46862886	      0.68754037	      0.33484659	     -0.35608666	      0.86967653	      0.21371119	     -0.33248092	      0.82263486	      0.22105074	     -0.24674341	      0.13498934	      0.31378396	     -0.46439127	      0.22324885	      0.11767386	     -0.43989753	      0.16194799	      0.11222823	     -0.51017602	      0.81930094	      1.46111575	     -0.57217315	      0.72733737	      1.48799319	     -0.22849264	      0.85469066	      1.42540148	     -0.34379683	      0.74009506	      1.50911426	     -0.41335665	      0.65524090	      1.43584653	     -0.15601149	      0.63847340	      1.36841042	     -0.13740558	      0.54024952	      1.40612496	     -0.14042190	      0.50999306	      1.33659478	     -0.07792772	      0.47771648	      1.31702796	     -0.15712339	      0.81473323	      1.38840791	     -0.63376902	      0.75913667	      1.31466635	     -0.64807592	      0.82799561	      1.30281406	     -0.67865164	      0.83920940	      1.20264549	     -0.72952143	      0.79238338	      1.14154520	     -0.67855750	      0.55814530	      1.27021560	     -0.05683262	      0.65452660	      1.12783297	     -0.06800254	      0.59033449	      1.10774560	     -0.05509237	      0.89433113	      1.23398669	     -0.69068863	      0.96165396	      1.29024841	     -0.53826684	      0.99669066	      1.23646738	     -0.55317169
      0.03333300	     -5.88658236	     -3.91398885	      7.47432280	      0.76457082	      0.99127385	     -0.40734079	     53.02735789	     -2.48963561	     -9.67530450	    -76.90590286	      7.72300206	    -22.49024118	     -6.01919003	     -1.50974419	    -18.71281570	    -30.40903029	     -8.15253936	      6.16707986	    -17.18193873	    -55.19067692	    -30.25689339	    -21.63620301	    102.03602686	     75.06506305	     12.54127673	    -33.83509708	     11.72901354	    133.55114460	     86.94362207	      0.00000000	      0.00000000	      0.00000000	      0.00000000	      0.00000000	      0.00000000	      0.00000000	      0.00000000	      0.77068445	      0.99099087	     -0.52464685	      0.77198409	      1.02462852	     -0.28904101	      0.61159344	      1.04964497	     -0.43617076	      0.61215509	      1.05356658	     -0.34766284	      0.80899976	      0.88172005	     -0.23195320	      0.92682182	      0.83215916	     -0.25017617	      0.94518060	      0.69543835	     -0.25375034	      0.66368916	      0.87014212	     -0.56697696	      0.65506182	      0.74732171	     -0.56096638	      0.52301787	      0.66368170	     -0.54516249	      0.99818206	      0.51762029	     -0.31634200	      0.92752856	      0.47815056	     -0.26696159	      0.88882385	      0.37090878	     -0.33811556	      0.41829988	      0.43367089	     -0.48782381	      0.30821281	      0.39677696	     -0.53675466	      0.26388887	      0.31889039	     -0.46768662	      0.72316033	      0.29501732	     -0.36067169	      0.92056708	      0.20011523	     -0.33569139	      0.87220367	      0.20090826	     -0.25005300	      0.12200584	      0.34339049	     -0.46679094	      0.18995594	      0.13957419	     -0.43345344	      0.12864248	      0.13571328	     -0.50356470	      0.82374462	      1.46434163	     -0.56949940	      0.72654118	      1.49004212	     -0.22816389	      0.85570947	      1.42740682	     -0.34079481	      0.74183336	      1.51131058	     -0.41222807	      0.65376253	      1.44023839	     -0.15579653	      0.63591762	      1.37291767	     -0.13713928	      0.53845429	      1.41278737	     -0.14093654	      0.50610532	      1.34395261	     -0.07924338	      0.47422714	      1.32502017	     -0.15865049	      0.81931811	      1.39289837	     -0.63202351	      0.76244547	      1.32148258	     -0.64981556	      0.83240375	      1.30740138	     -0.67754456	      0.84181302	      1.20699224	     -0.72901134	      0.79074701	      1.14689774	     -0.68042364	      0.55325678	      1.27775755	     -0.05676125	      0.64952277	      1.13485226	     -0.06514278	      0.58504511	      1.11533727	     -0.05231394	      0.89645496	      1.23681343	     -0.68821386	      0.95923775	      1.28962709	     -0.53217322	      0.99344376	      1.23532625	     -0.54711177
